<svg width="231" height="64" viewBox="0 0 231 64" fill="none" xmlns="http://www.w3.org/2000/svg">
<path d="M128.277 28.8155C126.719 28.8155 125.64 27.5274 125.64 25.953V25.9053C125.64 24.331 126.767 23.0906 128.277 23.0906C129.788 23.0906 129.908 23.4961 130.531 24.1163L131.442 23.0667C130.699 22.3272 129.788 21.8263 128.277 21.8263C125.832 21.8263 124.13 23.7108 124.13 25.953V26.0007C124.13 28.2907 125.856 30.1275 128.253 30.1275C130.651 30.1275 130.675 29.555 131.538 28.6962L130.627 27.7898C129.908 28.41 129.308 28.8155 128.277 28.8155Z" fill="#03BFD7"/>
<path d="M137.651 28.9586L136.812 28.243C136.332 28.7201 135.829 28.9586 135.158 28.9586C134.486 28.9586 133.575 28.3861 133.432 27.4081H137.914C137.914 27.265 137.962 27.1457 137.962 27.0265C137.962 25.309 136.98 23.7585 135.062 23.7585C133.144 23.7585 132.089 25.1897 132.089 26.9072V26.9549C132.089 28.8394 133.456 30.1036 135.23 30.1036C136.284 30.1275 137.075 29.6743 137.651 28.9586ZM134.99 24.9512C135.901 24.9512 136.428 25.6668 136.548 26.5255H133.408C133.575 25.5714 134.175 24.9512 134.99 24.9512Z" fill="#03BFD7"/>
<path d="M144.315 29.9843V26.12C144.315 24.7365 143.524 23.7823 142.158 23.7823C140.791 23.7823 140.647 24.2594 140.264 24.8319V23.9016H138.873V29.9366H140.264V26.5255C140.264 25.5952 140.839 25.0227 141.63 25.0227C142.421 25.0227 142.925 25.5475 142.925 26.4778V29.8889H144.315V29.9843Z" fill="#03BFD7"/>
<path d="M147.216 22.2795H145.825V23.9255H145.082V25.1182H145.825V28.3146C145.825 29.6265 146.545 30.0798 147.551 30.0798C148.558 30.0798 148.462 29.9605 148.798 29.7697V28.6485C148.534 28.7917 148.223 28.8394 147.935 28.8394C147.456 28.8394 147.192 28.6247 147.192 28.0999V25.142H148.822V23.9493H147.192V22.3034L147.216 22.2795Z" fill="#03BFD7"/>
<path d="M151.195 25.2851V23.9255H149.805V29.9605H151.195V27.6705C151.195 26.0484 152.058 25.2613 153.281 25.2613H153.353V23.8062C152.274 23.8062 151.555 24.3787 151.195 25.2851Z" fill="#03BFD7"/>
<path d="M156.997 30.1275C158.89 30.1275 160.233 28.6962 160.233 26.9788V26.931C160.233 25.2136 158.866 23.7823 156.997 23.7823C155.127 23.7823 153.76 25.2136 153.76 26.931V26.9788C153.76 28.6962 155.103 30.1275 156.997 30.1275ZM155.151 26.931C155.151 25.8815 155.87 25.0227 156.973 25.0227C158.075 25.0227 158.818 25.8815 158.818 26.9788V27.0265C158.818 28.076 158.099 28.9348 156.973 28.9348C155.942 28.8871 155.151 28.0283 155.151 26.931Z" fill="#03BFD7"/>
<path d="M171.116 26.5255V21.9933H169.726V26.6209C169.726 28.076 168.983 28.8394 167.688 28.8394C166.394 28.8394 165.651 28.0522 165.651 26.5494V22.0171H164.26V26.6448C164.26 28.9825 165.579 30.1752 167.688 30.1752C169.75 30.0798 171.116 28.8871 171.116 26.5255Z" fill="#03BFD7"/>
<path d="M173.825 26.5494C173.825 25.6191 174.401 25.0466 175.192 25.0466C175.983 25.0466 176.486 25.5714 176.486 26.5017V29.9128H177.877V26.0723C177.877 24.6888 177.086 23.7346 175.719 23.7346C174.353 23.7346 174.209 24.2117 173.825 24.7842V23.8539H172.435V29.8889H173.825V26.5494Z" fill="#03BFD7"/>
<path d="M180.61 21.6832H179.099V22.9952H180.61V21.6832Z" fill="#03BFD7"/>
<path d="M180.586 23.9255H179.195V29.9605H180.586V23.9255Z" fill="#03BFD7"/>
<path d="M185.117 30.0082L187.61 23.9255H186.123L184.469 28.3623L182.839 23.9255H181.329L183.87 30.0082H185.117Z" fill="#03BFD7"/>
<path d="M191.11 30.1275C192.236 30.1275 193.027 29.6742 193.603 29.0063L192.764 28.2907C192.284 28.7678 191.781 29.0063 191.11 29.0063C190.438 29.0063 189.527 28.4338 189.384 27.4558H193.842C193.842 27.3127 193.89 27.1934 193.89 27.0742C193.89 25.3567 192.908 23.8062 190.99 23.8062C189.072 23.8062 188.017 25.2374 188.017 26.9549V27.0026C187.969 28.8394 189.336 30.1275 191.11 30.1275ZM190.918 24.9512C191.829 24.9512 192.356 25.6668 192.476 26.5255H189.336C189.479 25.5714 190.103 24.9512 190.918 24.9512Z" fill="#03BFD7"/>
<path d="M196.216 27.6944C196.216 26.0723 197.079 25.2851 198.301 25.2851H198.373V23.83C197.319 23.7823 196.599 24.4025 196.216 25.2851V23.9255H194.825V29.9605H196.216V27.6944Z" fill="#03BFD7"/>
<path d="M201.538 26.4063C200.818 26.1916 200.171 26.0008 200.171 25.5475V25.4998C200.171 25.1659 200.483 24.9035 201.034 24.9035C201.586 24.9035 202.161 25.1182 202.736 25.476L203.312 24.498C202.664 24.0924 201.849 23.83 201.082 23.83C199.883 23.83 198.925 24.5457 198.925 25.6668V25.7145C198.925 26.8833 199.955 27.265 200.818 27.4797C201.538 27.6944 202.185 27.8614 202.185 28.3384V28.3861C202.185 28.7917 201.849 29.0302 201.25 29.0302C200.651 29.0302 199.931 28.7678 199.26 28.2907L198.661 29.221C199.404 29.8174 200.363 30.1275 201.226 30.1275C202.52 30.1275 203.479 29.4834 203.479 28.2192V28.1715C203.407 27.0742 202.425 26.6687 201.538 26.4063Z" fill="#03BFD7"/>
<path d="M205.901 21.6832H204.39V22.9952H205.901V21.6832Z" fill="#03BFD7"/>
<path d="M205.853 23.9255H204.462V29.9605H205.853V23.9255Z" fill="#03BFD7"/>
<path d="M207.483 28.2907C207.483 29.6027 208.202 30.0559 209.209 30.0559C210.216 30.0559 210.12 29.9366 210.456 29.7458V28.6247C210.192 28.7678 209.88 28.8155 209.593 28.8155C209.113 28.8155 208.849 28.6008 208.849 28.076V25.1182H210.48V23.9255H208.849V22.2795H207.459V23.9255H206.716V25.1182H207.459V28.3146L207.483 28.2907Z" fill="#03BFD7"/>
<path d="M215.897 21.874L214.627 21.3015L213.452 23.186H214.459L215.897 21.874Z" fill="#03BFD7"/>
<path d="M213.212 30.0798C214.147 30.0798 214.771 29.6981 215.178 29.221V29.9605H216.544V26.3824C216.544 25.5952 216.353 24.9512 215.897 24.498C215.49 24.0447 214.794 23.83 213.908 23.83C213.021 23.83 212.277 24.0209 211.606 24.3071L211.99 25.4044C212.565 25.1897 213.045 25.0227 213.716 25.0227C214.699 25.0227 215.226 25.476 215.226 26.3347V26.4778C214.747 26.3347 214.291 26.2154 213.596 26.2154C212.134 26.2154 211.103 26.8595 211.103 28.1715V28.2192C211.079 29.4596 212.086 30.0798 213.212 30.0798ZM212.421 28.1237C212.421 27.4797 212.949 27.098 213.86 27.098C214.771 27.098 214.89 27.2173 215.25 27.3127V27.7182C215.25 28.4577 214.531 29.0063 213.62 29.0063C212.949 29.0779 212.421 28.7678 212.421 28.1237Z" fill="#03BFD7"/>
<path d="M221.219 25.2851H221.291V23.83C220.236 23.7823 219.517 24.4025 219.134 25.2851V23.9255H217.743V29.9605H219.134V27.6705C219.158 26.0723 220.021 25.2851 221.219 25.2851Z" fill="#03BFD7"/>
<path d="M223.593 21.6832H222.082V22.9952H223.593V21.6832Z" fill="#03BFD7"/>
<path d="M223.521 23.9255H222.13V29.9605H223.521V23.9255Z" fill="#03BFD7"/>
<path d="M227.788 23.8062C225.942 23.8062 224.551 25.2374 224.551 26.9549V27.0026C224.551 28.7201 225.918 30.1275 227.764 30.1275C229.609 30.1275 231 28.6962 231 26.9787V26.931C231 25.2136 229.681 23.8062 227.788 23.8062ZM229.633 26.9787C229.633 28.0283 228.914 28.8871 227.788 28.8871C226.661 28.8871 225.942 28.0283 225.942 26.931V26.8833C225.942 25.8338 226.661 24.975 227.764 24.975C228.89 25.0227 229.633 25.8815 229.633 26.9787Z" fill="#03BFD7"/>
<path d="M128.086 37.3791L125.64 33.6101H124.13V41.625H125.521V35.9001L128.014 39.6213H128.086L130.627 35.8763V41.625H132.065V33.6101H130.555L128.086 37.3791Z" fill="#03BFD7"/>
<path d="M135.901 35.4946C134.918 35.4946 134.271 35.6854 133.599 35.9717L133.983 37.069C134.558 36.8543 135.038 36.6873 135.709 36.6873C136.692 36.6873 137.219 37.1405 137.219 37.9993V38.1424C136.764 37.9993 136.284 37.88 135.589 37.88C134.127 37.88 133.096 38.524 133.096 39.836V39.8837C133.096 41.0764 134.127 41.7682 135.253 41.7682C136.38 41.7682 136.812 41.3865 137.219 40.9094V41.6489H138.586V38.0708C138.586 37.2836 138.394 36.6396 137.938 36.1864C137.483 35.7093 136.812 35.4946 135.901 35.4946ZM137.267 39.4305C137.267 40.17 136.548 40.7186 135.637 40.7186C134.726 40.7186 134.462 40.3846 134.462 39.8122V39.7644C134.462 39.1204 134.99 38.7387 135.901 38.7387C136.812 38.7387 136.932 38.858 137.291 38.9534V39.4066L137.267 39.4305Z" fill="#03BFD7"/>
<path d="M141.199 36.9258V35.5662H139.808V41.6012H141.199V39.3112C141.199 37.6891 142.062 36.902 143.284 36.902H143.356V35.4469C142.253 35.4469 141.558 36.0194 141.199 36.9258Z" fill="#03BFD7"/>
<path d="M145.514 35.5662H144.123V41.6012H145.514V35.5662Z" fill="#03BFD7"/>
<path d="M145.61 33.3239H144.099V34.6358H145.61V33.3239Z" fill="#03BFD7"/>
<path d="M149.781 35.4469C147.935 35.4469 146.544 36.8781 146.544 38.5956V38.6433C146.544 40.3608 147.911 41.7682 149.757 41.7682C151.603 41.7682 152.993 40.3369 152.993 38.6194V38.5717C153.041 36.8543 151.675 35.4469 149.781 35.4469ZM151.651 38.6194C151.651 39.669 150.931 40.5278 149.805 40.5278C148.678 40.5278 147.959 39.669 147.959 38.5717V38.524C147.959 37.4745 148.678 36.6157 149.781 36.6157C150.883 36.6634 151.651 37.5222 151.651 38.6194Z" fill="#03BFD7"/>
<path d="M160.329 33.6101H157.164V41.6012H158.555V39.0011H160.137C161.911 39.0011 163.349 38.0708 163.349 36.2579V36.2102C163.373 34.6597 162.199 33.6101 160.329 33.6101ZM161.935 36.3295C161.935 37.1644 161.264 37.7607 160.209 37.7607H158.555V34.8744H160.209C161.264 34.8982 161.935 35.3753 161.935 36.3295Z" fill="#03BFD7"/>
<path d="M167.113 35.4469C165.267 35.4469 163.877 36.8781 163.877 38.5956V38.6433C163.877 40.3608 165.243 41.7682 167.089 41.7682C168.935 41.7682 170.325 40.3369 170.325 38.6194V38.5717C170.325 36.8543 168.959 35.4469 167.113 35.4469ZM168.959 38.6194C168.959 39.669 168.24 40.5278 167.113 40.5278C165.986 40.5278 165.267 39.669 165.267 38.5717V38.524C165.267 37.4745 165.986 36.6157 167.089 36.6157C168.168 36.6634 168.959 37.5222 168.959 38.6194Z" fill="#03BFD7"/>
<path d="M174.592 35.4469C173.657 35.4469 173.082 35.924 172.699 36.4965V35.5662H171.308V41.6012H172.699V38.1901C172.699 37.2598 173.274 36.6873 174.065 36.6873C174.856 36.6873 175.359 37.2121 175.359 38.1424V41.5535H176.75V37.713C176.75 36.3533 175.935 35.4469 174.592 35.4469Z" fill="#03BFD7"/>
<path d="M179.651 33.9202H178.26V35.5662H177.517V36.7589H178.26V39.9553C178.26 41.2672 178.979 41.7205 179.986 41.7205C180.993 41.7205 180.897 41.6012 181.233 41.4104V40.3131C180.969 40.4562 180.658 40.5039 180.37 40.5039C179.89 40.5039 179.627 40.2892 179.627 39.7644V36.8066H181.257V35.6139H179.627V33.9679V33.9202H179.651Z" fill="#03BFD7"/>
<path d="M184.877 35.4469C183.151 35.4469 181.904 36.8781 181.904 38.5956V38.6433C181.904 40.5278 183.27 41.792 185.044 41.792C186.818 41.792 186.962 41.3388 187.538 40.6709L186.699 39.9553C186.219 40.4323 185.716 40.6709 185.044 40.6709C184.373 40.6709 183.462 40.0984 183.318 39.1204H187.777C187.777 38.9773 187.825 38.858 187.825 38.7387C187.825 36.9497 186.818 35.4469 184.877 35.4469ZM183.294 38.1662C183.414 37.2359 184.014 36.5919 184.877 36.5919C185.74 36.5919 186.315 37.3075 186.435 38.1662H183.294Z" fill="#03BFD7"/>
<path d="M191.181 38.047C190.462 37.8323 189.815 37.6414 189.815 37.1882V37.1405C189.815 36.8066 190.127 36.5442 190.678 36.5442C191.229 36.5442 191.805 36.7588 192.38 37.1167L192.955 36.1386C192.308 35.7331 191.493 35.4707 190.726 35.4707C189.527 35.4707 188.568 36.1863 188.568 37.3075V37.3552C188.568 38.524 189.599 38.9057 190.462 39.1204C191.181 39.3351 191.829 39.502 191.829 39.9791V40.0268C191.829 40.4323 191.493 40.6709 190.894 40.6709C190.294 40.6709 189.575 40.4085 188.904 39.9314L188.305 40.8617C189.048 41.4581 190.007 41.7682 190.87 41.7682C192.164 41.7682 193.123 41.1241 193.123 39.8599V39.8121C193.075 38.7149 192.044 38.3093 191.181 38.047Z" fill="#03BFD7"/>
<path d="M200.195 38.8341C200.195 39.9314 199.668 40.4085 198.901 40.4085C198.134 40.4085 197.774 40.0745 197.271 39.4782L196.336 40.4562C196.863 41.1718 197.654 41.7443 198.901 41.7443C200.147 41.7443 200.363 41.5296 200.867 41.0287C201.346 40.5755 201.61 39.8599 201.61 38.8818V33.634H200.171V38.858L200.195 38.8341Z" fill="#03BFD7"/>
<path d="M207.004 38.9773C207.004 39.9076 206.428 40.4801 205.637 40.4801C204.846 40.4801 204.343 39.9553 204.343 39.025V35.6139H202.952V39.4543C202.952 40.8379 203.743 41.792 205.11 41.792C206.476 41.792 206.62 41.3149 207.004 40.7424V41.6727H208.394V35.6377H207.004V38.9773Z" fill="#03BFD7"/>
<path d="M212.541 40.5278C211.486 40.5278 210.719 39.669 210.719 38.5717V38.524C210.719 37.4745 211.462 36.6157 212.493 36.6157C213.524 36.6157 213.62 36.9258 214.051 37.3552L214.914 36.4249C214.339 35.8285 213.62 35.3753 212.493 35.3753C210.671 35.3753 209.329 36.8066 209.329 38.524V38.5717C209.329 40.2892 210.647 41.6966 212.469 41.6966C214.291 41.6966 214.363 41.2434 214.962 40.5755L214.123 39.7406C213.668 40.2177 213.188 40.5278 212.541 40.5278Z" fill="#03BFD7"/>
<path d="M218.199 35.4946C217.216 35.4946 216.568 35.6854 215.897 35.9717L216.281 37.069C216.856 36.8543 217.336 36.6873 218.007 36.6873C218.99 36.6873 219.517 37.1405 219.517 37.9993V38.1424C219.038 37.9993 218.582 37.88 217.887 37.88C216.425 37.88 215.394 38.524 215.394 39.836V39.8837C215.394 41.0764 216.425 41.7682 217.551 41.7682C218.678 41.7682 219.11 41.3865 219.517 40.9094V41.6489H220.884V38.0708C220.884 37.2836 220.692 36.6396 220.236 36.1864C219.781 35.7093 219.11 35.4946 218.199 35.4946ZM219.517 39.4305C219.517 40.17 218.798 40.7186 217.887 40.7186C216.976 40.7186 216.712 40.3846 216.712 39.8122V39.7644C216.712 39.1204 217.24 38.7387 218.151 38.7387C219.062 38.7387 219.181 38.858 219.541 38.9534V39.4066L219.517 39.4305Z" fill="#03BFD7"/>
<path d="M220.14 33.4193L218.894 32.8707L217.671 34.7551H218.726L220.14 33.4193Z" fill="#03BFD7"/>
<path d="M104.425 11.2829C107.589 11.2829 109.938 8.94521 109.938 6.03504C109.938 3.12486 107.589 0.477081 104.425 0.477081C101.26 0.477081 99.1028 2.81476 99.1028 6.03504C99.1028 9.25531 101.452 11.2829 104.425 11.2829Z" fill="#0A4E94"/>
<path d="M65.9487 36.6634H65.709L57.8939 14.5986H43.3425V56.2475H52.3323V25.2136H52.6918L61.7295 50.618H69.1131L78.2706 25.2136H78.5103V56.2236H87.548V14.5986H73.6439L65.9487 36.6634Z" fill="#0A4E94"/>
<path d="M110.106 14.5509H97.5206V15.8151L101.164 21.9217L101.404 39.0965C101.404 43.5334 97.9281 47.2069 93.4932 47.4692L95.7466 56.2713C104.233 54.9355 110.466 47.6362 110.466 39.0965L110.106 14.5509Z" fill="#0A4E94"/>
<path d="M26.4897 40.7425C26.4897 46.3958 24.1884 48.7097 19.8973 48.7097C15.6062 48.7097 12.5377 45.4894 12.5377 39.6452V14.5986H0V15.8628L3.52397 21.8263V21.874C3.54795 21.874 3.54795 41.3865 3.54795 41.3865C3.54795 49.8069 8.00685 56.1759 18.6507 56.1759C29.2945 56.1759 25.9623 55.4365 28.8151 53.6951L34.1849 56.8438H35.4555V14.5747H26.4658V40.7425H26.4897Z" fill="#0A4E94"/>
</svg>
